<?xml version="1.0" standalone="no"?>
<!DOCTYPE svg PUBLIC "-//W3C//DTD SVG 20010904//EN"
 "http://www.w3.org/TR/2001/REC-SVG-20010904/DTD/svg10.dtd">
<svg version="1.0" xmlns="http://www.w3.org/2000/svg"
 width="512.000000pt" height="512.000000pt" viewBox="0 0 512.000000 512.000000"
 preserveAspectRatio="xMidYMid meet">
<metadata>
Created by potrace 1.14, written by Peter Selinger 2001-2017
</metadata>
<g transform="translate(0.000000,512.000000) scale(0.100000,-0.100000)"
fill="#000000" stroke="none">
<path d="M0 2560 l0 -2560 2560 0 2560 0 0 2560 0 2560 -2560 0 -2560 0 0
-2560z m2173 1108 l-653 -653 -375 375 -375 375 0 277 0 278 1027 0 1028 0
-652 -652z m2147 -1123 l0 -1775 -278 0 -277 0 -1015 1015 -1015 1015 760 760
760 760 532 0 533 0 0 -1775z m-3283 -12 l-267 -268 0 535 0 535 267 -268 268
-267 -268 -267z m1393 -858 l905 -905 -1283 0 -1282 0 0 532 0 533 372 372
c205 205 375 373 378 373 3 0 412 -407 910 -905z"/>
</g>
</svg>
